<mxfile host="65bd71144e">
    <diagram id="P-xp0vjZ9OJv4FAjhlR4" name="第 1 页">
        <mxGraphModel dx="1138" dy="680" grid="1" gridSize="10" guides="1" tooltips="1" connect="1" arrows="1" fold="1" page="1" pageScale="1" pageWidth="3300" pageHeight="4681" math="0" shadow="0">
            <root>
                <mxCell id="0"/>
                <mxCell id="1" parent="0"/>
                <mxCell id="2" value="" style="ellipse;whiteSpace=wrap;html=1;align=center;shadow=0;" parent="1" vertex="1">
                    <mxGeometry x="450" y="150" width="650" height="420" as="geometry"/>
                </mxCell>
                <mxCell id="7" value="" style="ellipse;whiteSpace=wrap;html=1;shadow=0;" parent="1" vertex="1">
                    <mxGeometry x="480" y="540" width="610" height="220" as="geometry"/>
                </mxCell>
                <mxCell id="3" value="任务(核心)" style="text;html=1;align=center;verticalAlign=middle;resizable=0;points=[];autosize=1;strokeColor=none;fillColor=none;" parent="1" vertex="1">
                    <mxGeometry x="740" y="170" width="70" height="20" as="geometry"/>
                </mxCell>
                <mxCell id="4" value="账户上下文" style="ellipse;whiteSpace=wrap;html=1;shadow=0;" parent="1" vertex="1">
                    <mxGeometry x="570" y="210" width="120" height="80" as="geometry"/>
                </mxCell>
                <mxCell id="5" value="企业上下文" style="ellipse;whiteSpace=wrap;html=1;shadow=0;" parent="1" vertex="1">
                    <mxGeometry x="800" y="210" width="120" height="80" as="geometry"/>
                </mxCell>
                <mxCell id="6" value="任务上下文" style="ellipse;whiteSpace=wrap;html=1;shadow=0;" parent="1" vertex="1">
                    <mxGeometry x="700" y="370" width="120" height="80" as="geometry"/>
                </mxCell>
                <mxCell id="10" value="机器人上下文" style="ellipse;whiteSpace=wrap;html=1;shadow=0;" parent="1" vertex="1">
                    <mxGeometry x="640" y="520" width="120" height="80" as="geometry"/>
                </mxCell>
                <mxCell id="11" value="电梯上下文" style="ellipse;whiteSpace=wrap;html=1;shadow=0;" parent="1" vertex="1">
                    <mxGeometry x="790" y="510" width="120" height="80" as="geometry"/>
                </mxCell>
                <mxCell id="12" value="" style="ellipse;whiteSpace=wrap;html=1;shadow=0;" parent="1" vertex="1">
                    <mxGeometry y="180" width="520" height="360" as="geometry"/>
                </mxCell>
                <mxCell id="13" value="园区上下文" style="ellipse;whiteSpace=wrap;html=1;shadow=0;" parent="1" vertex="1">
                    <mxGeometry x="450" y="320" width="130" height="60" as="geometry"/>
                </mxCell>
                <mxCell id="14" value="地图(通用)" style="text;html=1;strokeColor=none;fillColor=none;align=center;verticalAlign=middle;whiteSpace=wrap;rounded=0;shadow=0;" parent="1" vertex="1">
                    <mxGeometry x="210" y="180" width="90" height="30" as="geometry"/>
                </mxCell>
                <mxCell id="18" value="设备（通用）" style="text;html=1;strokeColor=none;fillColor=none;align=center;verticalAlign=middle;whiteSpace=wrap;rounded=0;shadow=0;" parent="1" vertex="1">
                    <mxGeometry x="750" y="720" width="90" height="30" as="geometry"/>
                </mxCell>
                <mxCell id="19" value="" style="ellipse;whiteSpace=wrap;html=1;shadow=0;" parent="1" vertex="1">
                    <mxGeometry x="1030" y="230" width="460" height="270" as="geometry"/>
                </mxCell>
                <mxCell id="20" value="硬件(支撑)" style="text;html=1;align=center;verticalAlign=middle;resizable=0;points=[];autosize=1;strokeColor=none;fillColor=none;" parent="1" vertex="1">
                    <mxGeometry x="1240" y="250" width="70" height="20" as="geometry"/>
                </mxCell>
                <mxCell id="21" value="指令上下文" style="ellipse;whiteSpace=wrap;html=1;shadow=0;" parent="1" vertex="1">
                    <mxGeometry x="1130" y="320" width="120" height="80" as="geometry"/>
                </mxCell>
            </root>
        </mxGraphModel>
    </diagram>
</mxfile>